:SAMPLES-PER-SECOND 30
:FULLY-SPECIFIED
:DEGREES
280
root  24.6652 39.0452 0.634099 -13.0759 73.6521 -10.5586
RightUpLeg  -3.96559 -13.3404 2.10802
RightLeg  26.4204 -2.3067 -1.48912
RightFoot  -16.7485 -0.279914 -3.53662
RightToes  0.00048216 0.542163 -0.142577
Spine  19.0683 -1.83733 14.5996
Spine1  13.3586 1.07777 -2.1133
HEad  6.64133 2.04161 -6.51544
LeftShoulder1  9.77552 -14.5696 -47.2036
LeftArm  -1.35682 13.3087 -27.4975
LeftForeArm  22.179 -17.6259 -4.90626
LeftHand  -0.25398 0.0180481 5.50724
RightShoulder  5.28639 10.4647 31.9003
RightArm  5.6247 32.1992 35.3459
RightForeArm  -5.48326 24.5363 5.43092
RightHand  -0.905723 1.61947 -15.1308
LeftUpLeg  -26.2791 16.4995 1.57249
LeftLeg  32.6827 4.50747 3.664
LeftFoot  -1.62419 0.297969 -3.40105
LeftToes  1.06246e-005 4.65856e-005 -8.18501e-006
281
root  25.9958 39.0017 0.89537 -12.9174 73.0841 -10.9551
RightUpLeg  -1.48744 -12.5409 1.82705
RightLeg  25.0226 -2.33254 -1.42241
RightFoot  -18.3162 -0.282921 -2.63387
RightToes  0.00048216 0.542163 -0.142577
Spine  18.6295 -1.53788 14.6669
Spine1  13.9228 1.57346 -2.9999
HEad  6.16299 2.1298 -6.2804
LeftShoulder1  9.8385 -14.6284 -47.3566
LeftArm  -2.57691 13.7599 -26.7685
LeftForeArm  22.316 -16.6245 -5.14571
LeftHand  -0.25398 0.0180481 5.50724
RightShoulder  5.20733 10.4118 31.4736
RightArm  4.82371 34.0591 35.5377
RightForeArm  -3.75293 28.1608 6.28603
RightHand  -0.936525 1.52356 -15.8399
LeftUpLeg  -25.8506 19.1391 0.88378
LeftLeg  18.8469 5.5413 1.52799
LeftFoot  -0.633295 0.32208 -3.39152
LeftToes  1.06246e-005 4.65856e-005 -8.18501e-006
282
root  27.3731 38.8261 1.154 -13.4991 72.5232 -11.6865
RightUpLeg  1.04484 -11.1992 1.70987
RightLeg  24.526 -2.8972 -1.67792
RightFoot  -20.0589 -0.24762 -1.45173
RightToes  0.00048216 0.542163 -0.142577
Spine  18.5972 -1.37525 14.4165
Spine1  14.7101 1.90929 -3.46933
HEad  5.65452 2.49691 -5.92613
LeftShoulder1  9.87284 -14.6753 -47.4002
LeftArm  -3.87822 13.9304 -26.107
LeftForeArm  22.5737 -15.4644 -5.39564
LeftHand  -0.25398 0.0180481 5.50724
RightShoulder  5.21186 10.4833 31.3131
RightArm  4.68827 35.5731 35.6374
RightForeArm  -2.76837 31.2371 7.00353
RightHand  -0.963256 1.4422 -16.4671
LeftUpLeg  -23.0353 14.6351 4.30449
LeftLeg  5.18392 14.8447 -2.9562
LeftFoot  -0.117687 0.461986 -4.68334
LeftToes  1.06246e-005 4.65856e-005 -8.18501e-006
283
root  28.8537 38.4661 1.38762 -15.8937 71.9281 -13.7518
RightUpLeg  3.62067 -9.95512 1.98625
RightLeg  25.4821 -3.89622 -2.25882
RightFoot  -22.009 -0.263136 -1.20154
RightToes  0.00048216 0.542163 -0.142577
Spine  18.8307 -1.40959 14.3959
Spine1  15.4286 1.9536 -3.52545
HEad  5.12697 3.11827 -5.54504
LeftShoulder1  9.84932 -14.7132 -47.1845
LeftArm  -5.05663 13.8924 -25.6195
LeftForeArm  23.1115 -14.2644 -5.61322
LeftHand  -0.25398 0.0180481 5.50724
RightShoulder  5.27382 10.6537 31.3013
RightArm  5.02937 36.7249 35.7861
RightForeArm  -1.9948 33.5381 7.57429
RightHand  -0.962835 1.39176 -16.5758
LeftUpLeg  -20.1621 7.92937 8.62426
LeftLeg  -4.81947 26.5037 -8.00116
LeftFoot  0.918382 0.602612 -5.58024
LeftToes  1.06246e-005 4.65856e-005 -8.18501e-006
284
root  30.3385 38.0275 1.62265 -17.6324 71.8778 -15.3084
RightUpLeg  5.77377 -8.90373 2.10687
RightLeg  27.1063 -5.09586 -3.06815
RightFoot  -24.1331 -0.173725 -0.158958
RightToes  0.00048216 0.542163 -0.142577
Spine  19.2116 -1.52152 13.3177
Spine1  16.1374 1.64214 -3.04934
HEad  4.61671 3.94244 -5.11986
LeftShoulder1  9.793 -14.7413 -46.8348
LeftArm  -6.04848 13.5866 -25.23
LeftForeArm  23.8624 -13.1804 -5.75872
LeftHand  -0.25398 0.0180481 5.50724
RightShoulder  5.37654 10.8258 31.5723
RightArm  5.76115 37.5041 35.8531
RightForeArm  -0.959353 35.1439 7.96579
RightHand  -0.929941 1.30272 -16.2222
LeftUpLeg  -20.5403 8.72617 8.50208
LeftLeg  -5.45247 29.0683 -8.61968
LeftFoot  4.59443 0.375473 -3.16751
LeftToes  1.06246e-005 4.65856e-005 -8.18501e-006
285
root  31.7112 37.6294 1.87157 -16.343 72.5547 -14.286
RightUpLeg  6.2605 -7.72912 1.3718
RightLeg  30.4711 -5.66986 -3.83087
RightFoot  -25.3692 0.34871 4.25536
RightToes  0.00048216 0.542163 -0.142577
Spine  20.1652 -1.33896 10.2604
Spine1  16.4621 1.09934 -1.82074
HEad  3.99285 4.63394 -4.49994
LeftShoulder1  9.83462 -14.8544 -46.7411
LeftArm  -6.85049 12.5712 -24.559
LeftForeArm  24.5234 -12.2016 -5.86921
LeftHand  -0.25398 0.0180481 5.50724
RightShoulder  5.53121 11.0058 32.1748
RightArm  6.37364 37.804 35.602
RightForeArm  0.401453 36.1622 8.18176
RightHand  -0.880468 1.0237 -16.0174
LeftUpLeg  -22.5317 10.1201 7.03959
LeftLeg  -1.21957 28.3414 -7.33312
LeftFoot  11.8219 -0.851865 3.76133
LeftToes  1.06246e-005 4.65856e-005 -8.18501e-006
286
root  32.9823 37.2758 2.06135 -13.2389 73.1237 -11.4646
RightUpLeg  3.70463 -7.0599 -0.229962
RightLeg  38.6456 -4.96816 -4.528
RightFoot  -22.93 0.786426 9.47383
RightToes  0.00048216 0.542163 -0.142577
Spine  22.3431 -0.800225 7.26838
Spine1  15.6513 0.720861 -0.43729
HEad  2.68563 4.66584 -3.72681
LeftShoulder1  10.0917 -15.2469 -46.9625
LeftArm  -7.4819 10.2056 -23.3562
LeftForeArm  24.6017 -11.337 -5.99134
LeftHand  -0.25398 0.0180481 5.50724
RightShoulder  5.72368 11.2829 32.7621
RightArm  6.13493 37.6928 35.1395
RightForeArm  1.42052 36.3196 8.16764
RightHand  -0.875065 0.765496 -16.5482
LeftUpLeg  -27.2849 17.1577 1.77319
LeftLeg  8.22536 18.9991 -2.56264
LeftFoot  15.919 -2.49991 9.97935
LeftToes  1.06246e-005 4.65856e-005 -8.18501e-006
287
root  34.0212 37.112 2.13446 -8.45086 73.4723 -6.80113
RightUpLeg  -2.21981 -7.33361 -2.58037
RightLeg  50.5908 -4.05237 -5.66117
RightFoot  -14.0713 0.195396 10.1511
RightToes  0.00048216 0.542163 -0.142577
Spine  26.4157 -0.522066 5.4836
Spine1  14.4828 0.91407 -0.770592
HEad  0.139288 3.83828 -3.13448
LeftShoulder1  10.4789 -16.0194 -46.8341
LeftArm  -8.3305 6.0875 -22.1231
LeftForeArm  23.9435 -10.4216 -6.12639
LeftHand  -0.25398 0.0180481 5.50724
RightShoulder  5.88563 11.6429 32.9105
RightArm  5.00809 37.7751 34.8355
RightForeArm  1.05004 34.903 7.78348
RightHand  -0.980016 1.06559 -17.6621
LeftUpLeg  -32.297 27.287 -6.87534
LeftLeg  15.0608 6.1758 1.51652
LeftFoot  14.9237 -3.06628 12.6991
LeftToes  1.06246e-005 4.65856e-005 -8.18501e-006
288
root  34.7637 37.0813 2.11407 -2.54272 73.5196 -1.32572
RightUpLeg  -10.3185 -8.09548 -4.83912
RightLeg  61.6374 -3.09215 -6.72425
RightFoot  -3.40031 -0.473224 6.437
RightToes  0.00048216 0.542163 -0.142577
Spine  31.3632 -0.674387 4.72985
Spine1  14.0375 1.59402 -3.12174
HEad  -3.42349 2.4703 -3.03307
LeftShoulder1  10.7392 -16.9671 -45.7385
LeftArm  -9.83902 0.214795 -21.7258
LeftForeArm  22.8729 -8.97347 -6.1947
LeftHand  -0.25398 0.0180481 5.50724
RightShoulder  5.94102 11.986 32.4052
RightArm  4.19995 38.9936 34.8376
RightForeArm  -1.31444 31.1658 6.86574
RightHand  -1.15619 1.92603 -18.4502
LeftUpLeg  -34.3325 29.1739 -10.0917
LeftLeg  18.6498 4.56823 2.1645
LeftFoot  11.5258 -2.6615 12.7381
LeftToes  1.06246e-005 4.65856e-005 -8.18501e-006
289
root  35.3705 37.1863 2.0798 1.70848 73.3257 1.5561
RightUpLeg  -18.6964 -9.23201 -5.68495
RightLeg  67.9147 -2.2428 -6.81216
RightFoot  1.38796 -0.420572 3.72115
RightToes  0.00048216 0.542163 -0.142577
Spine  35.4804 -0.972204 4.87227
Spine1  14.2058 2.33868 -5.36061
HEad  -7.25678 1.00283 -3.36908
LeftShoulder1  10.7332 -17.6894 -44.075
LeftArm  -11.6811 -7.07756 -22.241
LeftForeArm  21.5516 -6.95455 -6.06545
LeftHand  -0.25398 0.0180481 5.50724
RightShoulder  5.85784 12.2957 31.1176
RightArm  4.61818 41.8924 34.9137
RightForeArm  -4.73022 24.9099 5.86864
RightHand  -1.21567 2.50495 -18.0065
LeftUpLeg  -35.6578 31.1408 -12.4243
LeftLeg  19.2373 2.92495 1.48341
LeftFoot  9.83393 -2.34693 12.1888
LeftToes  1.06246e-005 4.65856e-005 -8.18501e-006
290
root  35.9705 37.4786 2.08082 2.70443 73.2392 0.346755
RightUpLeg  -26.1512 -10.6891 -4.63604
RightLeg  68.2821 -1.89019 -6.0327
RightFoot  0.602813 -0.41182 4.01632
RightToes  0.00048216 0.542163 -0.142577
Spine  38.8159 -1.29347 5.89741
Spine1  14.2368 2.8058 -6.19625
HEad  -11.0021 -0.395888 -3.72446
LeftShoulder1  10.5538 -18.0652 -42.489
LeftArm  -13.6183 -14.9569 -23.0981
LeftForeArm  20.3325 -5.29405 -5.73489
LeftHand  -0.25398 0.0180481 5.50724
RightShoulder  5.65239 12.6522 28.9915
RightArm  1.39391 46.0567 34.4722
RightForeArm  -3.5553 16.5032 6.76823
RightHand  -1.0444 2.1327 -16.2308
LeftUpLeg  -36.7988 32.446 -13.7721
LeftLeg  17.8081 1.15379 0.625442
LeftFoot  10.2486 -2.41571 12.2891
LeftToes  1.06246e-005 4.65856e-005 -8.18501e-006
